<mxfile host="app.diagrams.net" modified="2021-08-27T12:54:09.922Z" agent="5.0 (Windows NT 10.0; Win64; x64) AppleWebKit/537.36 (KHTML, like Gecko) Chrome/92.0.4515.159 Safari/537.36" etag="meBmlngCiUFBapQMNtsQ" version="15.0.2" type="github">
  <diagram name="Page-1" id="929967ad-93f9-6ef4-fab6-5d389245f69c">
    <mxGraphModel dx="1422" dy="705" grid="1" gridSize="10" guides="1" tooltips="1" connect="1" arrows="1" fold="1" page="1" pageScale="1.5" pageWidth="1169" pageHeight="826" background="none" math="0" shadow="0">
      <root>
        <mxCell id="0" style=";html=1;" />
        <mxCell id="1" style=";html=1;" parent="0" />
        <mxCell id="1672d66443f91eb5-1" value="&lt;p style=&quot;margin: 0px ; margin-top: 4px ; margin-left: 10px ; text-align: left&quot;&gt;&lt;b&gt;Схема газодинамического проектирования К и Т&lt;/b&gt;&lt;/p&gt;" style="html=1;strokeWidth=1;shape=mxgraph.sysml.package;html=1;overflow=fill;whiteSpace=wrap;fillColor=none;gradientColor=none;fontSize=12;align=center;labelX=327.64;" parent="1" vertex="1">
          <mxGeometry x="360" y="200" width="1370" height="680" as="geometry" />
        </mxCell>
        <mxCell id="3rrWbV74bHChu7SR7OBz-15" style="edgeStyle=orthogonalEdgeStyle;rounded=0;orthogonalLoop=1;jettySize=auto;html=1;exitX=0;exitY=0.5;exitDx=0;exitDy=0;entryX=0.5;entryY=0;entryDx=0;entryDy=0;" edge="1" parent="1" source="3rrWbV74bHChu7SR7OBz-1" target="3rrWbV74bHChu7SR7OBz-9">
          <mxGeometry relative="1" as="geometry" />
        </mxCell>
        <mxCell id="3rrWbV74bHChu7SR7OBz-20" style="edgeStyle=orthogonalEdgeStyle;rounded=0;orthogonalLoop=1;jettySize=auto;html=1;exitX=1;exitY=0.5;exitDx=0;exitDy=0;entryX=0.5;entryY=0;entryDx=0;entryDy=0;" edge="1" parent="1" source="3rrWbV74bHChu7SR7OBz-1" target="3rrWbV74bHChu7SR7OBz-2">
          <mxGeometry relative="1" as="geometry" />
        </mxCell>
        <mxCell id="3rrWbV74bHChu7SR7OBz-1" value="Огра / ТермоГТЕ" style="html=1;" vertex="1" parent="1">
          <mxGeometry x="720" y="360" width="120" height="40" as="geometry" />
        </mxCell>
        <mxCell id="3rrWbV74bHChu7SR7OBz-21" style="edgeStyle=orthogonalEdgeStyle;rounded=0;orthogonalLoop=1;jettySize=auto;html=1;exitX=1;exitY=0.5;exitDx=0;exitDy=0;entryX=0.5;entryY=0;entryDx=0;entryDy=0;" edge="1" parent="1" source="3rrWbV74bHChu7SR7OBz-2" target="3rrWbV74bHChu7SR7OBz-3">
          <mxGeometry relative="1" as="geometry" />
        </mxCell>
        <mxCell id="3rrWbV74bHChu7SR7OBz-24" style="edgeStyle=orthogonalEdgeStyle;rounded=0;orthogonalLoop=1;jettySize=auto;html=1;exitX=0;exitY=0.5;exitDx=0;exitDy=0;entryX=0.5;entryY=0;entryDx=0;entryDy=0;" edge="1" parent="1" source="3rrWbV74bHChu7SR7OBz-2" target="3rrWbV74bHChu7SR7OBz-4">
          <mxGeometry relative="1" as="geometry" />
        </mxCell>
        <mxCell id="3rrWbV74bHChu7SR7OBz-2" value="Turbsr" style="html=1;" vertex="1" parent="1">
          <mxGeometry x="880" y="440" width="120" height="40" as="geometry" />
        </mxCell>
        <mxCell id="3rrWbV74bHChu7SR7OBz-22" style="edgeStyle=orthogonalEdgeStyle;rounded=0;orthogonalLoop=1;jettySize=auto;html=1;exitX=1;exitY=0.5;exitDx=0;exitDy=0;entryX=0.5;entryY=0;entryDx=0;entryDy=0;" edge="1" parent="1" source="3rrWbV74bHChu7SR7OBz-3" target="3rrWbV74bHChu7SR7OBz-1">
          <mxGeometry relative="1" as="geometry" />
        </mxCell>
        <mxCell id="3rrWbV74bHChu7SR7OBz-3" value="Turgr" style="html=1;" vertex="1" parent="1">
          <mxGeometry x="960" y="520" width="120" height="40" as="geometry" />
        </mxCell>
        <mxCell id="3rrWbV74bHChu7SR7OBz-25" style="edgeStyle=orthogonalEdgeStyle;rounded=0;orthogonalLoop=1;jettySize=auto;html=1;exitX=0.5;exitY=1;exitDx=0;exitDy=0;entryX=0.5;entryY=0;entryDx=0;entryDy=0;" edge="1" parent="1" source="3rrWbV74bHChu7SR7OBz-4" target="3rrWbV74bHChu7SR7OBz-5">
          <mxGeometry relative="1" as="geometry" />
        </mxCell>
        <mxCell id="3rrWbV74bHChu7SR7OBz-26" style="edgeStyle=orthogonalEdgeStyle;rounded=0;orthogonalLoop=1;jettySize=auto;html=1;exitX=0.5;exitY=1;exitDx=0;exitDy=0;entryX=0.5;entryY=0;entryDx=0;entryDy=0;" edge="1" parent="1" source="3rrWbV74bHChu7SR7OBz-4" target="3rrWbV74bHChu7SR7OBz-7">
          <mxGeometry relative="1" as="geometry" />
        </mxCell>
        <mxCell id="3rrWbV74bHChu7SR7OBz-4" value="Autoblade" style="html=1;" vertex="1" parent="1">
          <mxGeometry x="800" y="520" width="120" height="40" as="geometry" />
        </mxCell>
        <mxCell id="3rrWbV74bHChu7SR7OBz-27" style="edgeStyle=orthogonalEdgeStyle;rounded=0;orthogonalLoop=1;jettySize=auto;html=1;exitX=1;exitY=0.5;exitDx=0;exitDy=0;entryX=0.5;entryY=0;entryDx=0;entryDy=0;" edge="1" parent="1" source="3rrWbV74bHChu7SR7OBz-5" target="3rrWbV74bHChu7SR7OBz-6">
          <mxGeometry relative="1" as="geometry" />
        </mxCell>
        <mxCell id="3rrWbV74bHChu7SR7OBz-5" value="NX" style="html=1;" vertex="1" parent="1">
          <mxGeometry x="880" y="600" width="120" height="40" as="geometry" />
        </mxCell>
        <mxCell id="3rrWbV74bHChu7SR7OBz-6" value="Euler 3D" style="html=1;" vertex="1" parent="1">
          <mxGeometry x="960" y="680" width="120" height="40" as="geometry" />
        </mxCell>
        <mxCell id="3rrWbV74bHChu7SR7OBz-28" style="edgeStyle=orthogonalEdgeStyle;rounded=0;orthogonalLoop=1;jettySize=auto;html=1;exitX=0.5;exitY=1;exitDx=0;exitDy=0;entryX=0.5;entryY=0;entryDx=0;entryDy=0;" edge="1" parent="1" source="3rrWbV74bHChu7SR7OBz-7" target="3rrWbV74bHChu7SR7OBz-8">
          <mxGeometry relative="1" as="geometry" />
        </mxCell>
        <mxCell id="3rrWbV74bHChu7SR7OBz-7" value="Autogrid" style="html=1;" vertex="1" parent="1">
          <mxGeometry x="800" y="680" width="120" height="40" as="geometry" />
        </mxCell>
        <mxCell id="3rrWbV74bHChu7SR7OBz-8" value="CFX" style="html=1;" vertex="1" parent="1">
          <mxGeometry x="880" y="760" width="120" height="40" as="geometry" />
        </mxCell>
        <mxCell id="3rrWbV74bHChu7SR7OBz-16" style="edgeStyle=orthogonalEdgeStyle;rounded=0;orthogonalLoop=1;jettySize=auto;html=1;exitX=0.5;exitY=1;exitDx=0;exitDy=0;entryX=0.5;entryY=0;entryDx=0;entryDy=0;" edge="1" parent="1" source="3rrWbV74bHChu7SR7OBz-9" target="3rrWbV74bHChu7SR7OBz-11">
          <mxGeometry relative="1" as="geometry" />
        </mxCell>
        <mxCell id="3rrWbV74bHChu7SR7OBz-23" style="edgeStyle=orthogonalEdgeStyle;rounded=0;orthogonalLoop=1;jettySize=auto;html=1;exitX=0;exitY=0.5;exitDx=0;exitDy=0;entryX=0.5;entryY=0;entryDx=0;entryDy=0;" edge="1" parent="1" source="3rrWbV74bHChu7SR7OBz-9" target="3rrWbV74bHChu7SR7OBz-1">
          <mxGeometry relative="1" as="geometry" />
        </mxCell>
        <mxCell id="3rrWbV74bHChu7SR7OBz-9" value="XARIKA" style="html=1;" vertex="1" parent="1">
          <mxGeometry x="560" y="440" width="120" height="40" as="geometry" />
        </mxCell>
        <mxCell id="3rrWbV74bHChu7SR7OBz-10" value="NX" style="html=1;" vertex="1" parent="1">
          <mxGeometry x="400" y="600" width="120" height="40" as="geometry" />
        </mxCell>
        <mxCell id="3rrWbV74bHChu7SR7OBz-17" style="edgeStyle=orthogonalEdgeStyle;rounded=0;orthogonalLoop=1;jettySize=auto;html=1;exitX=0.5;exitY=1;exitDx=0;exitDy=0;entryX=0.5;entryY=0;entryDx=0;entryDy=0;" edge="1" parent="1" source="3rrWbV74bHChu7SR7OBz-11" target="3rrWbV74bHChu7SR7OBz-13">
          <mxGeometry relative="1" as="geometry" />
        </mxCell>
        <mxCell id="3rrWbV74bHChu7SR7OBz-18" style="edgeStyle=orthogonalEdgeStyle;rounded=0;orthogonalLoop=1;jettySize=auto;html=1;exitX=0;exitY=0.5;exitDx=0;exitDy=0;entryX=0.5;entryY=0;entryDx=0;entryDy=0;" edge="1" parent="1" source="3rrWbV74bHChu7SR7OBz-11" target="3rrWbV74bHChu7SR7OBz-10">
          <mxGeometry relative="1" as="geometry" />
        </mxCell>
        <mxCell id="3rrWbV74bHChu7SR7OBz-11" value="Autoblade" style="html=1;" vertex="1" parent="1">
          <mxGeometry x="560" y="520" width="120" height="40" as="geometry" />
        </mxCell>
        <mxCell id="3rrWbV74bHChu7SR7OBz-19" style="edgeStyle=orthogonalEdgeStyle;rounded=0;orthogonalLoop=1;jettySize=auto;html=1;exitX=0.5;exitY=1;exitDx=0;exitDy=0;entryX=0.5;entryY=0;entryDx=0;entryDy=0;" edge="1" parent="1" source="3rrWbV74bHChu7SR7OBz-13" target="3rrWbV74bHChu7SR7OBz-14">
          <mxGeometry relative="1" as="geometry" />
        </mxCell>
        <mxCell id="3rrWbV74bHChu7SR7OBz-13" value="Autogrid" style="html=1;" vertex="1" parent="1">
          <mxGeometry x="560" y="680" width="120" height="40" as="geometry" />
        </mxCell>
        <mxCell id="3rrWbV74bHChu7SR7OBz-14" value="CFX" style="html=1;" vertex="1" parent="1">
          <mxGeometry x="560" y="760" width="120" height="40" as="geometry" />
        </mxCell>
        <mxCell id="3rrWbV74bHChu7SR7OBz-29" value="Компрессор" style="text;html=1;strokeColor=none;fillColor=none;align=center;verticalAlign=middle;whiteSpace=wrap;rounded=0;fontSize=20;fontStyle=1;fontColor=#3333FF;" vertex="1" parent="1">
          <mxGeometry x="600" y="840" width="40" height="20" as="geometry" />
        </mxCell>
        <mxCell id="3rrWbV74bHChu7SR7OBz-30" value="Турбина" style="text;html=1;strokeColor=none;fillColor=none;align=center;verticalAlign=middle;whiteSpace=wrap;rounded=0;fontSize=20;fontStyle=1;fontColor=#3333FF;" vertex="1" parent="1">
          <mxGeometry x="920" y="840" width="40" height="20" as="geometry" />
        </mxCell>
        <mxCell id="3rrWbV74bHChu7SR7OBz-34" value="" style="rounded=0;whiteSpace=wrap;html=1;fontSize=20;fontColor=#3333FF;fillColor=none;strokeColor=#FF0000;strokeWidth=3;" vertex="1" parent="1">
          <mxGeometry x="380" y="330" width="750" height="90" as="geometry" />
        </mxCell>
        <mxCell id="3rrWbV74bHChu7SR7OBz-35" value="" style="rounded=0;whiteSpace=wrap;html=1;fontSize=20;fontColor=#3333FF;fillColor=none;strokeColor=#FF0000;strokeWidth=3;" vertex="1" parent="1">
          <mxGeometry x="380" y="420" width="750" height="150" as="geometry" />
        </mxCell>
        <mxCell id="3rrWbV74bHChu7SR7OBz-36" value="" style="rounded=0;whiteSpace=wrap;html=1;fontSize=20;fontColor=#3333FF;fillColor=none;strokeColor=#FF0000;strokeWidth=3;" vertex="1" parent="1">
          <mxGeometry x="380" y="570" width="750" height="80" as="geometry" />
        </mxCell>
        <mxCell id="3rrWbV74bHChu7SR7OBz-38" value="&lt;font style=&quot;font-size: 14px&quot;&gt;2.3 Доработка, интеграция и взаимоувязка моделей в ЦП CML-Bench задачи по разработке автоматизированного процесса решения задач газодинамики лопаточных машин в трехмерной постановке. Очередь 1&lt;/font&gt;" style="text;whiteSpace=wrap;html=1;fontSize=20;fontColor=#3333FF;verticalAlign=middle;align=center;" vertex="1" parent="1">
          <mxGeometry x="1150" y="230" width="550" height="90" as="geometry" />
        </mxCell>
        <mxCell id="3rrWbV74bHChu7SR7OBz-40" style="edgeStyle=orthogonalEdgeStyle;rounded=0;orthogonalLoop=1;jettySize=auto;html=1;exitX=0;exitY=0.5;exitDx=0;exitDy=0;entryX=1;entryY=0.5;entryDx=0;entryDy=0;fontSize=20;fontColor=#3333FF;" edge="1" parent="1" source="3rrWbV74bHChu7SR7OBz-39" target="3rrWbV74bHChu7SR7OBz-34">
          <mxGeometry relative="1" as="geometry" />
        </mxCell>
        <mxCell id="3rrWbV74bHChu7SR7OBz-39" value="2.3.1 интеграция термодинамической модели двигателя в ЦП" style="text;whiteSpace=wrap;html=1;fontSize=20;fontColor=#3333FF;align=center;verticalAlign=middle;strokeWidth=2;strokeColor=#FF0000;" vertex="1" parent="1">
          <mxGeometry x="1200" y="335" width="440" height="80" as="geometry" />
        </mxCell>
        <mxCell id="3rrWbV74bHChu7SR7OBz-43" style="edgeStyle=orthogonalEdgeStyle;rounded=0;orthogonalLoop=1;jettySize=auto;html=1;exitX=0;exitY=0.5;exitDx=0;exitDy=0;entryX=1;entryY=0.5;entryDx=0;entryDy=0;fontSize=20;fontColor=#3333FF;" edge="1" parent="1" source="3rrWbV74bHChu7SR7OBz-42" target="3rrWbV74bHChu7SR7OBz-35">
          <mxGeometry relative="1" as="geometry" />
        </mxCell>
        <mxCell id="3rrWbV74bHChu7SR7OBz-42" value="2.3.2 профилирование лопаток компрессора и турбины" style="text;whiteSpace=wrap;html=1;fontSize=20;fontColor=#3333FF;align=center;verticalAlign=middle;strokeWidth=2;strokeColor=#FF0000;" vertex="1" parent="1">
          <mxGeometry x="1200" y="455" width="440" height="80" as="geometry" />
        </mxCell>
        <mxCell id="3rrWbV74bHChu7SR7OBz-45" style="edgeStyle=orthogonalEdgeStyle;rounded=0;orthogonalLoop=1;jettySize=auto;html=1;exitX=0;exitY=0.5;exitDx=0;exitDy=0;entryX=1;entryY=0.5;entryDx=0;entryDy=0;fontSize=20;fontColor=#3333FF;" edge="1" parent="1" source="3rrWbV74bHChu7SR7OBz-44" target="3rrWbV74bHChu7SR7OBz-36">
          <mxGeometry relative="1" as="geometry" />
        </mxCell>
        <mxCell id="3rrWbV74bHChu7SR7OBz-44" value="2.3.3 сборка единой геометрической модели компрессора и турбины по результатам профилирования" style="text;whiteSpace=wrap;html=1;fontSize=20;fontColor=#3333FF;align=center;verticalAlign=middle;strokeWidth=2;strokeColor=#FF0000;" vertex="1" parent="1">
          <mxGeometry x="1200" y="570" width="440" height="80" as="geometry" />
        </mxCell>
        <mxCell id="3rrWbV74bHChu7SR7OBz-46" value="Этап 2" style="text;html=1;strokeColor=none;fillColor=none;align=center;verticalAlign=middle;whiteSpace=wrap;rounded=0;fontSize=20;fontStyle=1;fontColor=#3333FF;" vertex="1" parent="1">
          <mxGeometry x="1370" y="210" width="70" height="20" as="geometry" />
        </mxCell>
      </root>
    </mxGraphModel>
  </diagram>
</mxfile>
